<svg width="30" height="30" viewBox="0 0 30 30" fill="none" xmlns="http://www.w3.org/2000/svg">
<rect width="30" height="30" rx="15" fill="#494598"/>
<path d="M19.9998 6.16504C21.1058 6.16504 21.9548 7.00804 22.5838 7.91504L22.7968 8.23604L22.9918 8.55604C23.0538 8.66071 23.1132 8.76337 23.1698 8.86404C23.9568 10.271 24.6418 12.108 25.0948 13.923C25.5448 15.724 25.7938 17.605 25.6348 19.084C25.4748 20.569 24.7098 22.165 22.9998 22.165C21.4658 22.165 20.2568 21.345 19.2748 20.544L18.1648 19.613C17.2418 18.857 16.2318 18.165 14.9998 18.165C13.7678 18.165 12.7568 18.857 11.8358 19.613L10.7258 20.543C9.74182 21.345 8.53282 22.165 6.99982 22.165C5.28882 22.165 4.52382 20.569 4.36482 19.084C4.20682 17.604 4.45482 15.724 4.90482 13.923C5.35782 12.108 6.04282 10.271 6.82982 8.86404L7.00782 8.55504L7.20282 8.23604L7.41582 7.91504C8.04482 7.00804 8.89382 6.16504 9.99982 6.16504C10.5098 6.16504 11.0168 6.28904 11.5148 6.43504L12.1078 6.61704C12.2058 6.64704 12.3032 6.67571 12.3998 6.70304C13.2648 6.95104 14.1498 7.16504 14.9998 7.16504C15.8498 7.16504 16.7348 6.95104 17.5998 6.70304L18.4848 6.43604C18.9828 6.28904 19.4898 6.16504 19.9998 6.16504ZM11.4998 10.165C10.8368 10.165 10.2009 10.4284 9.73205 10.8973C9.26321 11.3661 8.99982 12.002 8.99982 12.665C8.99982 13.3281 9.26321 13.964 9.73205 14.4328C10.2009 14.9016 10.8368 15.165 11.4998 15.165C12.1629 15.165 12.7987 14.9016 13.2676 14.4328C13.7364 13.964 13.9998 13.3281 13.9998 12.665C13.9998 12.002 13.7364 11.3661 13.2676 10.8973C12.7987 10.4284 12.1629 10.165 11.4998 10.165ZM18.4998 10.165C18.2346 10.165 17.9802 10.2704 17.7927 10.4579C17.6052 10.6455 17.4998 10.8998 17.4998 11.165V11.665H16.9998C16.7346 11.665 16.4802 11.7704 16.2927 11.9579C16.1052 12.1455 15.9998 12.3998 15.9998 12.665C15.9998 12.9303 16.1052 13.1846 16.2927 13.3721C16.4802 13.5597 16.7346 13.665 16.9998 13.665H17.4998V14.165C17.4998 14.4303 17.6052 14.6846 17.7927 14.8721C17.9802 15.0597 18.2346 15.165 18.4998 15.165C18.765 15.165 19.0194 15.0597 19.2069 14.8721C19.3945 14.6846 19.4998 14.4303 19.4998 14.165V13.665H19.9998C20.265 13.665 20.5194 13.5597 20.7069 13.3721C20.8945 13.1846 20.9998 12.9303 20.9998 12.665C20.9998 12.3998 20.8945 12.1455 20.7069 11.9579C20.5194 11.7704 20.265 11.665 19.9998 11.665H19.4998V11.165C19.4998 10.8998 19.3945 10.6455 19.2069 10.4579C19.0194 10.2704 18.765 10.165 18.4998 10.165ZM11.4998 12.165C11.6324 12.165 11.7596 12.2177 11.8534 12.3115C11.9471 12.4053 11.9998 12.5324 11.9998 12.665C11.9998 12.7976 11.9471 12.9248 11.8534 13.0186C11.7596 13.1124 11.6324 13.165 11.4998 13.165C11.3672 13.165 11.24 13.1124 11.1463 13.0186C11.0525 12.9248 10.9998 12.7976 10.9998 12.665C10.9998 12.5324 11.0525 12.4053 11.1463 12.3115C11.24 12.2177 11.3672 12.165 11.4998 12.165Z" fill="white"/>
</svg>
