<?xml version="1.0" encoding="UTF-8"?>
<svg version="1.1" xmlns="http://www.w3.org/2000/svg" width="1327" height="188">
<path d="M0 0 C51.81 0 103.62 0 157 0 C155.51124977 2.97750045 154.55071504 4.72490787 152.4609375 7.1015625 C151.96698486 7.66907227 151.47303223 8.23658203 150.96411133 8.82128906 C150.43970459 9.41651367 149.91529785 10.01173828 149.375 10.625 C145.7668182 14.77045615 142.20897119 18.92721848 138.8125 23.25 C137.91800896 24.33985954 137.91800896 24.33985954 137.00544739 25.45173645 C134.97004315 27.94884991 134.97004315 27.94884991 133.34379578 30.61552429 C130.81530146 34.16526587 128.41024844 37.30882669 124.06058121 38.55615616 C118.24566259 39.43254715 112.3790461 39.16707708 106.51953125 39.01953125 C104.61864395 39.01061024 102.71772613 39.00684419 100.81681824 39.00798035 C95.83199027 39.00048959 90.84956966 38.93776548 85.86541748 38.85876465 C77.8793929 38.7377425 69.89331768 38.68441807 61.90646935 38.662817 C59.12376841 38.64480146 56.34316458 38.59294166 53.56098938 38.53755188 C51.85162231 38.52364401 50.14224591 38.51082445 48.43286133 38.49926758 C47.66440887 38.47493149 46.89595642 38.4505954 46.10421753 38.42552185 C42.13153633 38.43014121 39.58864981 38.9368138 36.52983093 41.397995 C33.66057002 44.32488302 33.66057002 44.32488302 32.9375 48.125 C32.66629485 51.78610092 32.66629485 51.78610092 34.05805969 53.71516418 C37.03068725 55.68192822 39.59707133 55.40235205 43.13354492 55.43237305 C44.21684837 55.44766052 44.21684837 55.44766052 45.32203674 55.46325684 C47.70825909 55.49344195 50.09408039 55.50266087 52.48046875 55.51171875 C54.13529297 55.52856141 55.79010436 55.54671109 57.44490051 55.56611633 C61.79975375 55.61366759 66.15455499 55.64344364 70.50958252 55.66955566 C74.95375845 55.69933544 79.39775513 55.74587459 83.84179688 55.79101562 C92.56110996 55.87710701 101.28043927 55.94442615 110 56 C108.73383005 59.29007024 107.60264813 61.78714525 105.2421875 64.41796875 C104.43322021 65.33243774 104.43322021 65.33243774 103.60791016 66.26538086 C103.0360498 66.89968018 102.46418945 67.53397949 101.875 68.1875 C100.69122964 69.52473413 99.50893616 70.8632771 98.328125 72.203125 C97.75513672 72.85216797 97.18214844 73.50121094 96.59179688 74.16992188 C93.94406908 77.21399665 91.45164282 80.373834 88.9765625 83.55859375 C88.32429687 84.36425781 87.67203125 85.16992188 87 86 C86.57392456 86.64580017 86.14784912 87.29160034 85.7088623 87.95697021 C83.27533034 91.28974348 81.3957691 93.62303124 77.32015991 94.72377014 C74.08209726 94.97115127 70.92616637 94.97739907 67.6796875 94.89453125 C65.91445236 94.90017342 65.91445236 94.90017342 64.11355591 94.90592957 C60.3661775 94.91222259 56.62197377 94.86521664 52.875 94.8125 C49.12153293 94.78629065 45.36857968 94.77146085 41.61502075 94.77262878 C39.28329178 94.77060015 36.95149901 94.75132367 34.62008667 94.71284485 C33.56193756 94.70681747 32.50378845 94.7007901 31.41357422 94.69458008 C30.48648651 94.6815535 29.5593988 94.66852692 28.60421753 94.65510559 C24.41196362 95.21031456 21.79810142 97.04227829 19.125 100.25 C17.63860154 103.88341847 18.05912222 106.23648887 19 110 C21.29867177 111.14933588 22.61151239 111.13417646 25.16856384 111.15148926 C26.04204971 111.15983292 26.91553558 111.16817657 27.81549072 111.17677307 C29.2563504 111.1830497 29.2563504 111.1830497 30.72631836 111.18945312 C32.24108513 111.20189308 32.24108513 111.20189308 33.78645325 111.21458435 C35.98433281 111.23201097 38.18223123 111.24717059 40.3801403 111.26036072 C43.85508517 111.28134203 47.32993544 111.30836878 50.80482483 111.33703613 C58.1823471 111.39680731 65.55991307 111.44892541 72.9375 111.5 C81.48048267 111.55917325 90.02341876 111.62143967 98.5663166 111.69187927 C101.99585104 111.7185055 105.42539002 111.73928989 108.85496521 111.7598877 C110.95140813 111.77648817 113.04784892 111.79335979 115.14428711 111.81054688 C116.58211044 111.8168235 116.58211044 111.8168235 118.04898071 111.82322693 C118.92528641 111.83157059 119.8015921 111.83991425 120.70445251 111.84851074 C121.46602126 111.85366447 122.22759001 111.85881821 123.0122366 111.86412811 C125 112 125 112 128 113 C125.00674936 125.4484012 121.5219454 137.67319109 118 150 C66.52 150 15.04 150 -38 150 C-38 142.13136052 -38 142.13136052 -36.85546875 138.10546875 C-36.59668945 137.17283203 -36.33791016 136.24019531 -36.07128906 135.27929688 C-35.77963867 134.25900391 -35.48798828 133.23871094 -35.1875 132.1875 C-34.53858446 129.84814931 -33.8915852 127.50826655 -33.24609375 125.16796875 C-33.06998566 124.53269257 -32.89387756 123.89741638 -32.71243286 123.2428894 C-30.54498516 115.40367632 -28.49776135 107.5330333 -26.44485474 99.66320801 C-25.74425211 96.97796975 -25.04213449 94.29313177 -24.33959961 91.60839844 C-22.16046703 83.27910187 -19.98602077 74.94859527 -17.81684875 66.61669922 C-16.6293841 62.05657837 -15.44028823 57.49688462 -14.25 52.9375 C-13.9050499 51.61616058 -13.9050499 51.61616058 -13.5531311 50.26812744 C-10.08062671 36.98166236 -6.49893561 23.73277094 -2.69506836 10.53662109 C-1.73700952 7.04022792 -0.87925911 3.51703645 0 0 Z " fill="#000000" transform="translate(546,38)"/>
<path d="M0 0 C51.48 0 102.96 0 156 0 C154.19704336 4.50739159 153.12652184 6.26162246 149.9375 9.625 C144.15011813 15.87537242 138.83854569 22.46847601 133.50390625 29.10546875 C132.69824219 30.10191406 131.89257812 31.09835938 131.0625 32.125 C129.96615234 33.49011719 129.96615234 33.49011719 128.84765625 34.8828125 C127 37 127 37 125 38 C122.37234345 38.11201388 119.76986396 38.16466768 117.14135742 38.17358398 C116.32979691 38.180271 115.51823639 38.18695801 114.68208313 38.19384766 C112.91637369 38.20791477 111.15064588 38.21980351 109.38490868 38.22979546 C106.58989699 38.24618506 103.79502093 38.26942296 101.00007629 38.29469299 C93.05212143 38.36551884 85.10411054 38.42555454 77.15600586 38.47680664 C72.29717651 38.5086191 67.43850179 38.54990308 62.57979774 38.59700203 C60.72788593 38.61301153 58.87593846 38.62533796 57.02397728 38.63390923 C54.43143418 38.64607895 51.83925364 38.67023661 49.24682617 38.69702148 C48.4824826 38.69761063 47.71813904 38.69819977 46.93063354 38.69880676 C41.9155579 38.76737745 37.99704574 39.2095452 34.1875 42.625 C32.36210388 46.27579223 32.60681307 48.93706837 33 53 C36.70273234 55.46848823 38.6183585 55.27316721 43.04174805 55.31884766 C44.11042114 55.33391609 44.11042114 55.33391609 45.20068359 55.34928894 C47.55435381 55.38016687 49.90791005 55.39716862 52.26171875 55.4140625 C53.8941191 55.43277047 55.52650974 55.4523436 57.15888977 55.4727478 C61.45454185 55.52411433 65.7502253 55.56371577 70.04602051 55.60089111 C74.42984811 55.64090248 78.81354471 55.69200788 83.19726562 55.7421875 C91.79808766 55.8390003 100.39897443 55.92338785 109 56 C107.30276641 60.62157733 104.82009684 63.80810387 101.5625 67.4375 C96.75042281 72.90952757 92.16249019 78.49931701 87.74243164 84.29272461 C86.51928861 85.8808586 85.26023249 87.44113422 84 89 C83.37407959 89.87567627 82.74815918 90.75135254 82.10327148 91.65356445 C77.31737455 95.27226128 72.71854889 94.66998027 66.875 94.6015625 C65.69534668 94.60956879 64.51569336 94.61757507 63.30029297 94.62582397 C59.53317909 94.64890434 55.76714316 94.63942245 52 94.625 C48.23305888 94.62115422 44.46659441 94.62457601 40.69970703 94.64559937 C38.35696261 94.65769949 36.01408447 94.65500186 33.67138672 94.63589478 C32.60678223 94.63955048 31.54217773 94.64320618 30.4453125 94.64697266 C29.51219238 94.64299469 28.57907227 94.63901672 27.61767578 94.63491821 C24.40440875 95.08306587 22.58084156 96.04806276 20 98 C17.32917961 102.59628479 17.32917961 102.59628479 18 111 C53.64 111.33 89.28 111.66 126 112 C127.30708432 115.92125297 126.34022097 118.80366558 125.375 122.6875 C125.19477295 123.43265869 125.0145459 124.17781738 124.82885742 124.94555664 C120.21185436 143.57629127 120.21185436 143.57629127 117 150 C65.52 150 14.04 150 -39 150 C-37.87504268 139.87538409 -37.87504268 139.87538409 -36.89941406 136.2578125 C-36.68067123 135.43371384 -36.46192841 134.60961517 -36.23655701 133.76054382 C-35.87969566 132.45594963 -35.87969566 132.45594963 -35.515625 131.125 C-35.2639003 130.18360672 -35.0121756 129.24221344 -34.75282288 128.27229309 C-33.92453222 125.17988722 -33.08721067 122.09000165 -32.25 119 C-31.66361102 116.81618602 -31.0779299 114.63218185 -30.49291992 112.44799805 C-29.2752204 107.90387564 -28.05447171 103.36058888 -26.83154297 98.81787109 C-24.23903935 89.17885595 -21.68225302 79.53039492 -19.12600708 69.88171387 C-18.31542529 66.8235366 -17.50348105 63.76572407 -16.69116211 60.70800781 C-14.12033856 51.02731836 -11.5618987 41.3436186 -9.03125 31.65234375 C-8.56600555 29.87328939 -8.10075505 28.09423662 -7.63549805 26.31518555 C-6.77651186 23.02983389 -5.92177702 19.74341722 -5.06958008 16.45629883 C-4.68845779 14.99686994 -4.30719992 13.53747646 -3.92578125 12.078125 C-3.60005127 10.82418945 -3.27432129 9.57025391 -2.9387207 8.27832031 C-2 5 -2 5 0 0 Z " fill="#000000" transform="translate(372,38)"/>
<path d="M0 0 C2.65117073 -0.36914349 2.65117073 -0.36914349 6.08694458 -0.36076355 C8.03473816 -0.36694954 8.03473816 -0.36694954 10.0218811 -0.3732605 C11.4691793 -0.3626423 12.91647542 -0.35173786 14.36376953 -0.34057617 C15.88128645 -0.33973035 17.3988046 -0.34020417 18.9163208 -0.34190369 C23.04427671 -0.34276681 27.17197276 -0.32508999 31.29986811 -0.30418181 C35.6106959 -0.28546767 39.92152921 -0.28366874 44.23239136 -0.28010559 C52.39930446 -0.27076961 60.56609754 -0.24613489 68.73295772 -0.21605712 C78.02906182 -0.18256135 87.32517157 -0.16603926 96.62132096 -0.15097082 C115.74761544 -0.11958663 134.87379808 -0.06679605 154 0 C152.58232196 3.70889424 151.09371268 6.42676049 148.5625 9.5 C147.85351562 10.36496094 147.14453125 11.22992188 146.4140625 12.12109375 C143.29731717 15.83798907 140.16957057 19.54560005 137.00927734 23.22558594 C133.67783752 27.12291735 130.61759917 31.14894277 127.73046875 35.390625 C123.79883202 39.04713591 117.37640112 38.12239151 112.28564453 38.05004883 C111.53684021 38.04376968 110.78803589 38.03749054 110.01654053 38.03102112 C108.39929473 38.01723018 106.78206597 38.00130866 105.16485977 37.98346901 C102.59980752 37.95668664 100.03484335 37.93890689 97.46969604 37.92399597 C90.1793439 37.88138966 82.88916581 37.83366888 75.59912109 37.75317383 C71.13127225 37.70449534 66.66366305 37.67561296 62.19558334 37.65942955 C60.49957333 37.64957004 58.8035886 37.63241801 57.10773087 37.60764503 C44.9166087 37.19833054 44.9166087 37.19833054 34 42 C31.27713194 46.08430208 31.61475466 48.14590877 32 53 C35.72246021 55.48164014 37.68389561 55.27352016 42.13354492 55.31884766 C42.85574722 55.32889328 43.57794952 55.3389389 44.32203674 55.34928894 C46.70817268 55.38016939 49.09419617 55.39716934 51.48046875 55.4140625 C53.13528921 55.43277026 54.7901001 55.45234338 56.44490051 55.4727478 C60.79973713 55.52411649 65.15460469 55.56371678 69.50958252 55.60089111 C73.95373214 55.64090112 78.39775251 55.69200714 82.84179688 55.7421875 C91.56110969 55.83900286 100.28048637 55.9233896 109 56 C106.92839861 59.54081446 104.81670698 62.44992661 102 65.4375 C97.7909175 70.02300451 93.93227454 74.7950119 90.15820312 79.73803711 C89.30829852 80.84217153 88.44467461 81.93589591 87.56695557 83.01805115 C86.47002051 84.40549902 85.42224009 85.83257945 84.41387939 87.28567505 C81.71610256 90.84407638 79.58750008 93.54614352 75.19544983 94.80180359 C71.88612012 95.0691284 68.68161813 95.06452492 65.36328125 94.95703125 C64.16567673 94.95700607 62.9680722 94.9569809 61.73417664 94.95695496 C57.92529568 94.95107157 54.12063783 94.88547867 50.3125 94.8125 C46.49438273 94.76608716 42.67707466 94.7326459 38.85868835 94.72160339 C36.48789447 94.71206094 34.1170646 94.68075155 31.74690247 94.62519836 C25.47110851 94.5099696 25.47110851 94.5099696 19.79760742 96.89331055 C17.39930121 99.70398341 17.02955141 100.67493453 16.6875 104.4375 C16.60876336 107.98745746 16.60876336 107.98745746 18.74032974 109.69773579 C21.24387424 111.14054648 22.60397849 111.38160274 25.46722412 111.39872742 C26.80070137 111.41753464 26.80070137 111.41753464 28.16111755 111.4367218 C29.61228722 111.43456917 29.61228722 111.43456917 31.09277344 111.43237305 C32.62983696 111.44766052 32.62983696 111.44766052 34.19795227 111.46325684 C37.58514833 111.4934523 40.97206188 111.50266298 44.359375 111.51171875 C46.70779363 111.52856054 49.05620321 111.54671009 51.40460205 111.56611633 C57.58592911 111.61367654 63.76721951 111.64344711 69.94866943 111.66955566 C76.25621786 111.6993307 82.56363991 111.74587154 88.87109375 111.79101562 C101.24732981 111.87711734 113.62359183 111.94443218 126 112 C125.84572065 113.44583946 125.68964513 114.89148733 125.5328064 116.33705139 C125.44608358 117.14211656 125.35936077 117.94718172 125.27000999 118.7766428 C124.98295106 121.14038698 124.53507012 123.385217 123.9140625 125.68359375 C123.60082031 126.85825195 123.60082031 126.85825195 123.28125 128.05664062 C123.0646875 128.84232422 122.848125 129.62800781 122.625 130.4375 C122.31175781 131.61022461 122.31175781 131.61022461 121.9921875 132.80664062 C120.43731707 138.57577879 118.71803929 144.27320237 117 150 C65.19 150 13.38 150 -40 150 C-39.34739736 145.4317815 -38.69524885 141.46699148 -37.50390625 137.08984375 C-37.19807617 135.95603271 -36.89224609 134.82222168 -36.57714844 133.65405273 C-36.24231445 132.42759033 -35.90748047 131.20112793 -35.5625 129.9375 C-35.01800903 127.92345437 -34.47519132 125.90896258 -33.93252563 123.89442444 C-33.54897599 122.47059432 -33.16499496 121.04688036 -32.78060913 119.62327576 C-30.77398361 112.18445421 -28.81797775 104.73254983 -26.86413574 97.27972412 C-22.63435135 81.14794357 -18.35066415 65.0308815 -14.03851318 48.92092896 C-11.57255497 39.70813815 -9.10887425 30.49579893 -6.75390625 21.25390625 C-6.42994873 19.98506592 -6.10599121 18.71622559 -5.7722168 17.40893555 C-5.19408665 15.13181068 -4.62094364 12.85341091 -4.05395508 10.57348633 C-3.80669678 9.59790771 -3.55943848 8.6223291 -3.3046875 7.6171875 C-3.09827637 6.78815918 -2.89186523 5.95913086 -2.67919922 5.10498047 C-2 3 -2 3 0 0 Z " fill="#000000" transform="translate(1173,38)"/>
<path d="M0 0 C2.70660168 0.01852076 5.41315457 0.0201377 8.11981201 0.02270508 C13.77933666 0.03742421 19.43690557 0.09702983 25.09570312 0.1875 C32.3479614 0.30321334 39.59865288 0.34442287 46.85173416 0.36222839 C53.10741401 0.37817291 59.36275684 0.42815259 65.61819363 0.48361588 C67.62018653 0.4999607 69.62221759 0.51138461 71.62424469 0.52279663 C75.35851704 0.55030379 79.09137611 0.60484698 82.82519531 0.66796875 C84.48045731 0.6746759 84.48045731 0.6746759 86.16915894 0.68151855 C93.9423499 0.85552632 97.44963439 2.13375305 102.921875 7.75 C108.25893059 19.45046803 102.50066241 33.7391773 99.296875 45.375 C98.79938585 47.237258 98.30328318 49.09988696 97.80859375 50.96289062 C89.2868694 82.81183622 89.2868694 82.81183622 77.546875 91.3125 C71.04159245 94.85889377 65.44370722 96.44384924 58.03125 96.41015625 C56.78085937 96.40693359 55.53046875 96.40371094 54.2421875 96.40039062 C52.28925781 96.38782227 52.28925781 96.38782227 50.296875 96.375 C48.97945313 96.37048828 47.66203125 96.36597656 46.3046875 96.36132812 C43.05203759 96.34954316 39.79947916 96.33309011 36.546875 96.3125 C42.2558151 106.61666152 48.02021505 116.87938131 54.16015625 126.93359375 C54.5458226 127.56514374 54.93148895 128.19669373 55.32884216 128.84738159 C57.23373484 131.96052733 59.14814298 135.06750026 61.07202148 138.16894531 C61.77721224 139.31443389 62.48237319 140.45994081 63.1875 141.60546875 C63.81172852 142.6111792 64.43595703 143.61688965 65.07910156 144.65307617 C66.36670974 146.98606284 66.97720802 148.75374652 67.546875 151.3125 C61.01982373 151.66922377 54.49529816 151.91328639 47.96069336 152.08154297 C45.74163955 152.15170173 43.52322751 152.24706992 41.30639648 152.36865234 C23.50654273 153.32000316 23.50654273 153.32000316 18.73648071 150.08453369 C15.71522925 146.90713818 13.9804035 143.2079708 12.33999634 139.18157959 C11.14927328 136.37550686 9.55136508 133.85058947 7.95703125 131.2578125 C6.83842971 129.31927309 5.72255686 127.37915666 4.609375 125.4375 C0.03027024 117.50363001 -4.63260875 109.6494567 -9.60913086 101.95751953 C-12.453125 97.51714101 -12.453125 97.51714101 -12.453125 95.3125 C-32.253125 95.3125 -52.053125 95.3125 -72.453125 95.3125 C-71.41119587 90.10285433 -69.78241018 87.89534018 -66.390625 84.125 C-65.38174424 82.96968199 -64.37393967 81.81342336 -63.3671875 80.65625 C-62.62130371 79.80546875 -62.62130371 79.80546875 -61.86035156 78.9375 C-59.93476686 76.71392405 -58.09498194 74.42809479 -56.265625 72.125 C-55.65770111 71.38794327 -55.04977722 70.65088654 -54.4234314 69.89149475 C-52.40928323 67.39375111 -52.40928323 67.39375111 -51.03530884 64.69334412 C-48.85469862 61.05880277 -46.76933877 57.98589578 -42.52040863 56.75059891 C-36.52253898 55.83933637 -30.46009176 56.09531518 -24.4140625 56.22265625 C-22.44447169 56.22649047 -20.47486601 56.22547296 -18.50527954 56.21983337 C-13.33477838 56.21602775 -8.16651824 56.26920687 -2.996521 56.3371582 C5.28359653 56.43605194 13.56430918 56.44672289 21.84492111 56.45992851 C24.73132755 56.47247323 27.61669544 56.5084328 30.50283813 56.5483551 C32.27614032 56.56138949 34.04944553 56.5740199 35.82275391 56.58618164 C36.62082962 56.60332718 37.41890533 56.62047272 38.24116516 56.63813782 C43.08920546 56.65058036 46.32489565 55.95845731 50.546875 53.3125 C53.17048213 49.97336365 52.8512774 46.42193241 52.546875 42.3125 C50.128596 39.894221 49.55173769 40.05726484 46.24423218 40.0340271 C45.34116837 40.02286362 44.43810455 40.01170013 43.50767517 40.00019836 C42.5143367 39.99803818 41.52099823 39.99587799 40.49755859 39.99365234 C39.45363449 39.98360672 38.40971039 39.9735611 37.33415222 39.96321106 C33.87121144 39.93223141 30.40834847 39.91530288 26.9453125 39.8984375 C24.54919763 39.87973775 22.15308942 39.86016525 19.75698853 39.8397522 C13.44083578 39.78829904 7.12466164 39.74874398 0.80841064 39.71160889 C-5.63298895 39.67165171 -12.0742986 39.62052168 -18.515625 39.5703125 C-31.16139413 39.47339718 -43.80721474 39.38866334 -56.453125 39.3125 C-55.62433535 35.38869899 -54.0628899 33.32644161 -51.453125 30.25 C-50.63714844 29.27804688 -49.82117188 28.30609375 -48.98046875 27.3046875 C-48.14644531 26.31726563 -47.31242187 25.32984375 -46.453125 24.3125 C-44.97070566 22.50265935 -43.4914677 20.69020759 -42.015625 18.875 C-41.2912323 18.0308252 -40.5668396 17.18665039 -39.82049561 16.31689453 C-37.38839405 13.4114181 -37.38839405 13.4114181 -35.78521729 10.19042969 C-27.81991791 -2.97827891 -13.78082118 -0.2715204 0 0 Z " fill="#000000" transform="translate(244.453125,36.6875)"/>
<path d="M0 0 C1.0023317 -0.0071553 2.00466339 -0.01431061 3.03736877 -0.02168274 C4.14126953 -0.02437164 5.24517029 -0.02706055 6.38252258 -0.02983093 C7.54199905 -0.03640213 8.70147552 -0.04297333 9.89608765 -0.04974365 C13.74744221 -0.06951391 17.5987577 -0.0811481 21.45014954 -0.09111023 C22.76348581 -0.09518576 24.07682209 -0.09926128 25.42995644 -0.10346031 C31.66473053 -0.12251624 37.89949278 -0.13674444 44.1342904 -0.14507228 C51.32519389 -0.15483612 58.51578886 -0.18113122 65.70658368 -0.22157317 C71.26762419 -0.25177254 76.82857648 -0.2665449 82.38969737 -0.26985329 C85.70943654 -0.27220018 89.02877161 -0.28309464 92.34844017 -0.30631447 C96.05666559 -0.33063791 99.76408571 -0.32975256 103.47236633 -0.32279968 C104.56614594 -0.33560974 105.65992554 -0.3484198 106.78684998 -0.36161804 C113.17381559 -0.31798505 117.0604988 0.33564002 122.25093079 4.14717102 C126.38355732 8.82356421 127.14231254 13.10095444 127.25093079 19.14717102 C126.85527821 22.39352457 126.08815964 25.4889117 125.25093079 28.64717102 C124.91460632 29.98219666 124.91460632 29.98219666 124.57148743 31.3441925 C123.82039053 34.28491062 123.04030025 37.21650189 122.25093079 40.14717102 C121.96588684 41.20823059 121.6808429 42.26929016 121.38716125 43.36250305 C110.4747757 83.67787152 110.4747757 83.67787152 97.00093079 91.44404602 C85.1699356 96.81469515 70.98155904 95.28588247 58.25093079 95.14717102 C60.41032954 98.94301847 62.57861668 102.7337003 64.75093079 106.52217102 C65.08029633 107.09686127 65.40966187 107.67155151 65.74900818 108.26365662 C69.66886275 115.09157302 73.65524984 121.86902654 77.80952454 128.55732727 C78.36230576 129.44786804 78.36230576 129.44786804 78.92625427 130.35639954 C80.71356676 133.22987891 82.51176242 136.09565048 84.32124329 138.95527649 C85.28997375 140.50239319 85.28997375 140.50239319 86.27827454 142.08076477 C86.85311584 142.98882874 87.42795715 143.8968927 88.0202179 144.83247375 C89.25093079 147.14717102 89.25093079 147.14717102 89.25093079 150.14717102 C82.81023734 150.35041217 76.37037306 150.49027043 69.92720032 150.58662415 C67.73678184 150.62679748 65.54657713 150.68134921 63.35688782 150.75068665 C60.20384512 150.84801161 57.05364146 150.89315776 53.89936829 150.92842102 C52.43652908 150.99035645 52.43652908 150.99035645 50.94413757 151.05354309 C44.3032171 151.05790241 44.3032171 151.05790241 41.39532471 148.54118347 C39.81473936 146.48388137 38.51595372 144.41048825 37.25093079 142.14717102 C36.56877502 141.06323059 35.88661926 139.97929016 35.18379211 138.86250305 C34.57301819 137.80402161 33.96224426 136.74554016 33.33296204 135.65498352 C32.99020737 135.06530792 32.6474527 134.47563232 32.29431152 133.86808777 C31.21258079 132.00549632 30.13755673 130.13915644 29.06343079 128.27217102 C28.36538061 127.06353864 27.66681475 125.85520394 26.96772766 124.64717102 C26.61956497 124.04263092 26.27140228 123.43809082 25.91268921 122.81523132 C25.18743755 121.57410099 24.44824322 120.34102274 23.69598389 119.11607361 C21.53980421 115.57279673 19.79960965 112.11491815 18.29219055 108.24629211 C16.08562663 103.08496011 13.89469277 98.50056985 9.25093079 95.14717102 C0.40732484 92.27234956 -9.21435944 93.06088892 -18.39097595 93.44764709 C-21.81615387 93.57243129 -25.24190568 93.59339583 -28.66899109 93.62373352 C-35.36684926 93.70374387 -42.0559726 93.88559632 -48.74906921 94.14717102 C-48.90423193 89.21029068 -48.59315437 87.22741693 -45.31156921 83.45967102 C-44.57938171 82.59857727 -43.84719421 81.73748352 -43.09281921 80.85029602 C-42.31938171 79.95826477 -41.54594421 79.06623352 -40.74906921 78.14717102 C-39.26478821 76.33885684 -37.78564502 74.52631374 -36.31156921 72.70967102 C-35.26291619 71.43117624 -34.21001063 70.15552254 -33.1212616 68.91099548 C-31.61879884 67.06639453 -31.61879884 67.06639453 -30.22746277 64.47587585 C-27.73915759 60.60609007 -25.35666074 56.97171873 -20.7763195 55.52336693 C-14.86000352 54.55147684 -8.87226366 54.84022727 -2.90141296 54.99482727 C-0.96047477 55.00307457 0.98049351 55.00586836 2.92144775 55.003479 C8.01419658 55.00912702 13.10408114 55.07685526 18.19606018 55.16145325 C26.34699146 55.28752737 34.49858195 55.32370971 42.65034294 55.35053825 C45.48707694 55.36949968 48.32213431 55.41793882 51.15841675 55.47067261 C52.90807935 55.48734675 54.65774873 55.50332851 56.40742493 55.51850891 C57.18738831 55.54082077 57.96735168 55.56313263 58.77095032 55.58612061 C64.31119917 55.60100552 68.64867004 54.31344391 73.25093079 51.14717102 C74.45365898 48.74171464 74.35164551 47.19720149 74.31343079 44.52217102 C74.30440735 43.7049054 74.29538391 42.88763977 74.28608704 42.04560852 C74.27448547 41.41912415 74.26288391 40.79263977 74.25093079 40.14717102 C70.997114 38.21559718 68.60853381 37.90650284 64.84785461 37.93598938 C63.75788177 37.93932785 62.66790894 37.94266632 61.54490662 37.94610596 C60.3612149 37.95960587 59.17752319 37.97310577 57.95796204 37.98701477 C56.71900177 37.99257889 55.4800415 37.99814301 54.20353699 38.00387573 C51.5398068 38.01630582 48.87634181 38.03206053 46.21269226 38.05342102 C39.28023278 38.10810299 32.34762922 38.12562633 25.41499329 38.14326477 C24.3789713 38.14632944 24.3789713 38.14632944 23.32201958 38.14945602 C10.52200587 38.1846721 -2.26637838 38.00361301 -15.06156921 37.64717102 C-15.93445587 37.62307159 -16.80734253 37.59897217 -17.7066803 37.57414246 C-22.38785764 37.44278275 -27.06857337 37.30085772 -31.74906921 37.14717102 C-31.11891134 31.82627062 -30.4434737 29.07427077 -26.87406921 25.02217102 C-26.06840515 24.08888977 -25.26274109 23.15560852 -24.43266296 22.19404602 C-23.99937683 21.70355774 -23.5660907 21.21306946 -23.11967468 20.7077179 C-21.17449156 18.49296718 -19.27853847 16.2378674 -17.37944031 13.9835968 C-16.00121156 12.34884494 -14.61571793 10.72049246 -13.22953796 9.09248352 C-11.63506156 7.19919973 -10.07194095 5.27881115 -8.54985046 3.32685852 C-5.82616494 0.03007648 -4.11233992 0.02010788 0 0 Z " fill="#000000" transform="translate(1022.7490692138672,37.85282897949219)"/>
<path d="M0 0 C51.48 0 102.96 0 156 0 C154.2340101 3.53197981 152.55909094 5.93527039 150.0625 8.9375 C148.86173828 10.38382813 148.86173828 10.38382813 147.63671875 11.859375 C146.75846186 12.90679483 145.87953398 13.95365233 145 15 C144.54318848 15.54462891 144.08637695 16.08925781 143.61572266 16.65039062 C140.4271527 20.44793876 137.21823739 24.22756463 134 28 C133.29101562 28.8353125 132.58203125 29.670625 131.8515625 30.53125 C131.24054688 31.2428125 130.62953125 31.954375 130 32.6875 C129.484375 33.28949219 128.96875 33.89148438 128.4375 34.51171875 C125.80403845 37.23821019 124.24304419 37.98279727 120.44595337 38.2515564 C118.94268971 38.26291971 117.43932055 38.26335842 115.93603516 38.25537109 C114.70384499 38.26080177 114.70384499 38.26080177 113.44676208 38.26634216 C111.66251359 38.27323694 109.878244 38.27574145 108.0939827 38.27439499 C105.26940874 38.27343079 102.44521642 38.28635936 99.62069702 38.30337524 C91.58993494 38.34967988 83.55921126 38.37425489 75.52832031 38.38085938 C70.61638317 38.38587323 65.70484371 38.41011755 60.79304123 38.44618607 C58.92158775 38.45598789 57.05007958 38.45831393 55.17860794 38.45301437 C52.55955754 38.44594622 49.94169232 38.46322048 47.32275391 38.48583984 C46.55063065 38.47766739 45.77850739 38.46949493 44.98298645 38.46107483 C40.03848427 38.53700854 37.46186102 39.45247573 34 43 C32.88554502 45.22890995 32.83519714 46.53055106 32.8125 49 C32.79832031 49.70125 32.78414063 50.4025 32.76953125 51.125 C32.83487677 53.24524938 32.83487677 53.24524938 35 55 C36.93824615 55.31298787 36.93824615 55.31298787 39.18875122 55.2784729 C40.50548325 55.29521812 40.50548325 55.29521812 41.84881592 55.31230164 C42.81410217 55.31446182 43.77938843 55.31662201 44.77392578 55.31884766 C45.78858917 55.32889328 46.80325256 55.3389389 47.84866333 55.34928894 C51.2142071 55.38026614 54.57967082 55.39719642 57.9453125 55.4140625 C60.27416683 55.43276245 62.6030143 55.45233497 64.93185425 55.4727478 C71.07045458 55.52419887 77.20907692 55.56375505 83.34777832 55.60089111 C89.60821024 55.6408496 95.86854963 55.69197903 102.12890625 55.7421875 C114.41920596 55.83910035 126.70955775 55.92345581 139 56 C137.49658602 60.00606088 135.89372829 62.50714371 132.9375 65.625 C127.15011813 71.87537242 121.83854569 78.46847601 116.50390625 85.10546875 C115.69824219 86.10191406 114.89257812 87.09835938 114.0625 88.125 C112.96615234 89.49011719 112.96615234 89.49011719 111.84765625 90.8828125 C110 93 110 93 108 94 C105.19269875 94.0932753 102.41038902 94.12575925 99.60302734 94.11352539 C98.30048759 94.11374443 98.30048759 94.11374443 96.97163391 94.1139679 C94.09304328 94.11326961 91.21451686 94.1054811 88.3359375 94.09765625 C86.34339432 94.09579177 84.35085069 94.09436801 82.35830688 94.09336853 C77.10740906 94.08954569 71.85653878 94.07971737 66.60565186 94.06866455 C61.25012586 94.05844543 55.89459543 94.05386983 50.5390625 94.04882812 C40.02602955 94.03809491 29.51301706 94.02102127 19 94 C18.60671005 95.79148972 18.60671005 95.79148972 18.20547485 97.61917114 C14.63060844 113.84502912 14.63060844 113.84502912 12.7109375 121.0546875 C12.52157623 121.77439728 12.33221497 122.49410706 12.13711548 123.23562622 C11.74746858 124.71240027 11.35609484 126.18871991 10.96289062 127.66455078 C10.36250881 129.92196647 9.77089233 132.18157176 9.1796875 134.44140625 C8.7947847 135.89596941 8.40938771 137.35040191 8.0234375 138.8046875 C7.84944427 139.47128387 7.67545105 140.13788025 7.4961853 140.82467651 C6.59949995 144.1635664 5.56235359 146.87529282 4 150 C-9.86 150 -23.72 150 -38 150 C-38 144.03411508 -37.85859155 140.45755688 -36.41796875 134.96875 C-36.24837143 134.31284882 -36.07877411 133.65694763 -35.90403748 132.98117065 C-35.34163798 130.81808597 -34.76488697 128.65912821 -34.1875 126.5 C-33.78051202 124.95018349 -33.37411297 123.40021223 -32.96826172 121.85009766 C-29.49979318 108.66096178 -25.87795965 95.51266521 -22.24023438 82.36938477 C-18.83697644 70.07262335 -15.49054611 57.76156107 -12.1875 45.4375 C-11.8403595 44.14265686 -11.8403595 44.14265686 -11.48620605 42.82165527 C-8.50031775 31.67697898 -5.53950179 20.52622693 -2.66088867 9.35327148 C-2.45052979 8.53802002 -2.2401709 7.72276855 -2.0234375 6.8828125 C-1.75926025 5.85244873 -1.75926025 5.85244873 -1.48974609 4.80126953 C-1.05010319 3.18427783 -0.52990075 1.58970225 0 0 Z " fill="#000000" transform="translate(38,38)"/>
<path d="M0 0 C-1.56313525 4.19670204 -3.31630412 6.6964502 -6.4375 9.9375 C-10.44323967 14.22149655 -14.1589964 18.61393653 -17.75 23.25 C-28.05181918 36.52590959 -28.05181918 36.52590959 -31 38 C-33.68907363 38.09648872 -36.35293681 38.13313251 -39.04223633 38.12597656 C-40.28883781 38.12877876 -40.28883781 38.12877876 -41.56062317 38.13163757 C-43.36890667 38.13564659 -45.17719526 38.13771687 -46.98548317 38.13809967 C-50.82818335 38.14150874 -54.67071333 38.1628633 -58.5133543 38.18333054 C-65.67209262 38.22138836 -72.830651 38.25261446 -79.98950195 38.25048828 C-84.96520803 38.24970166 -89.94029403 38.27304511 -94.91583824 38.3123703 C-96.81240744 38.3228409 -98.70904811 38.32434654 -100.60563087 38.31671906 C-103.26096376 38.30710637 -105.91441696 38.32826131 -108.56958008 38.35644531 C-109.74414764 38.34115028 -109.74414764 38.34115028 -110.94244385 38.32554626 C-114.92097851 38.40123636 -116.79392423 38.83937338 -119.9683075 41.31365967 C-122.47620575 44.6296478 -122.92351838 46.86999233 -123 51 C-121.33971363 54.20529265 -121.33971363 54.20529265 -118.48556519 54.67466736 C-114.05882246 55.08784681 -109.67501916 55.17703316 -105.23095703 55.20532227 C-104.26447739 55.21522186 -103.29799774 55.22512146 -102.30223083 55.23532104 C-99.12078263 55.26680459 -95.93931951 55.29164136 -92.7578125 55.31640625 C-90.54677959 55.33698713 -88.33575052 55.3579839 -86.12472534 55.37937927 C-80.31497306 55.43448278 -74.50518597 55.48394364 -68.69537354 55.53222656 C-62.76303013 55.5825273 -56.83073707 55.63816857 -50.8984375 55.69335938 C-39.26566805 55.80079754 -27.63285481 55.9022742 -16 56 C-16.95577914 57.27903435 -17.91220247 58.55758732 -18.86889648 59.8359375 C-19.40143539 60.5479834 -19.9339743 61.2600293 -20.48265076 61.99365234 C-22.28603731 64.37821899 -24.15680438 66.69649516 -26.0625 69 C-28.85403822 72.38700286 -31.63654891 75.78015877 -34.3984375 79.19140625 C-34.98359131 79.91392578 -35.56874512 80.63644531 -36.17163086 81.38085938 C-37.33467215 82.81773715 -38.49696365 84.25522219 -39.65844727 85.69335938 C-40.19268311 86.35271484 -40.72691895 87.01207031 -41.27734375 87.69140625 C-41.99265259 88.57614624 -41.99265259 88.57614624 -42.72241211 89.47875977 C-45.64321355 92.95659538 -45.64321355 92.95659538 -49.5300293 93.42944336 C-51.14824175 93.51739098 -52.76730916 93.59022348 -54.38671875 93.65234375 C-55.2958049 93.69101059 -56.20489105 93.72967743 -57.14152527 93.76951599 C-71.56149644 94.27344346 -86.00569549 93.86803921 -100.42773438 93.60510254 C-104.451091 93.53322746 -108.47457178 93.46913476 -112.49804688 93.40429688 C-120.33216889 93.27694885 -128.1661155 93.14128013 -136 93 C-136.24161865 94.12462646 -136.4832373 95.24925293 -136.73217773 96.40795898 C-138.89784648 106.38291397 -141.30337551 116.23278674 -144.0625 126.0625 C-144.40087891 127.28904297 -144.73925781 128.51558594 -145.08789062 129.77929688 C-150.21497182 148.21497182 -150.21497182 148.21497182 -152 150 C-155.10251201 150.08874135 -158.1826812 150.11518455 -161.28515625 150.09765625 C-162.21597519 150.0962413 -163.14679413 150.09482635 -164.1058197 150.09336853 C-167.09141191 150.08775172 -170.07693029 150.0751964 -173.0625 150.0625 C-175.08137913 150.05748716 -177.10025943 150.05292388 -179.11914062 150.04882812 C-184.07945572 150.03777683 -189.03971532 150.02050095 -194 150 C-195.36112488 145.91662535 -194.14102574 142.87043015 -193.04296875 138.85546875 C-192.82469421 138.0312442 -192.60641968 137.20701965 -192.38153076 136.3578186 C-191.65786827 133.63226851 -190.92259864 130.90998579 -190.1875 128.1875 C-189.67891848 126.2791164 -189.171198 124.37050314 -188.66430664 122.46166992 C-187.62201953 118.54074382 -186.57552422 114.62098022 -185.52539062 110.70214844 C-183.51127277 103.18161576 -181.52614487 95.65351647 -179.54571533 88.12405396 C-178.93416933 85.79984162 -178.32138019 83.47595941 -177.70849609 81.15209961 C-174.69102223 69.69794344 -171.74297829 58.22668135 -168.8125 46.75 C-165.90864554 35.38097153 -162.9791536 24.02056506 -159.9375 12.6875 C-159.65044189 11.6140332 -159.36338379 10.54056641 -159.06762695 9.43457031 C-158.8068335 8.4700293 -158.54604004 7.50548828 -158.27734375 6.51171875 C-158.05296631 5.68115967 -157.82858887 4.85060059 -157.59741211 3.99487305 C-157 2 -157 2 -156 0 C-141.41873349 -0.15623124 -126.83740048 -0.30413055 -112.2559576 -0.4429636 C-105.48057106 -0.50765352 -98.70523146 -0.57492556 -91.92993164 -0.64819336 C-61.26361373 -0.97804338 -30.65088667 -1.15820757 0 0 Z " fill="#000000" transform="translate(912,38)"/>
<path d="M0 0 C0.98296645 19.18107809 -0.02268926 35.43161329 -5.84587097 53.86688232 C-9.25007309 64.8007611 -12.01462859 75.92515211 -14.90792847 87.00271606 C-15.92539329 90.89629222 -16.95363718 94.78695408 -17.98266602 98.67749023 C-18.6227853 101.10654834 -19.26268709 103.53566378 -19.90234375 105.96484375 C-20.19994598 107.08866455 -20.49754822 108.21248535 -20.8041687 109.37036133 C-21.07882965 110.41853027 -21.3534906 111.46669922 -21.63647461 112.54663086 C-21.87659775 113.45843613 -22.11672089 114.37024139 -22.36412048 115.30967712 C-23.0421401 118.17828922 -23.51540917 121.09245504 -24 124 C-19.71 124 -15.42 124 -11 124 C-11.875 131.875 -11.875 131.875 -13 133 C-15.26991887 133.09439978 -17.54281967 133.11742226 -19.81469727 133.11352539 C-20.88293228 133.11374443 -20.88293228 133.11374443 -21.9727478 133.1139679 C-24.33733112 133.1132687 -26.70183661 133.10547606 -29.06640625 133.09765625 C-30.70165463 133.09579209 -32.33690357 133.09436818 -33.97215271 133.09336853 C-38.28434785 133.08954318 -42.59650952 133.07971275 -46.90869141 133.06866455 C-51.30565946 133.0584508 -55.70263289 133.05387099 -60.09960938 133.04882812 C-68.73308831 133.03809049 -77.36654 133.02101387 -86 133 C-85.5020163 129.26512223 -85.12508244 127.18762365 -83 124 C-79.70445651 123.65800964 -76.47601369 123.68800447 -73.1640625 123.69921875 C-69.76218395 123.30950616 -69.76218395 123.30950616 -67.9453125 120.23828125 C-66.98238281 118.63533203 -66.98238281 118.63533203 -66 117 C-63.265625 114.65625 -63.265625 114.65625 -60.25 112.5 C-59.19683594 111.73558594 -58.14367187 110.97117187 -57.05859375 110.18359375 C-56.04925781 109.46300781 -55.03992188 108.74242188 -54 108 C-52.43350692 106.85963177 -50.87033 105.71467445 -49.3125 104.5625 C-48.68988281 104.11003906 -48.06726563 103.65757813 -47.42578125 103.19140625 C-45.85251209 102.03801203 -45.85251209 102.03801203 -45 100 C-50.61 100 -56.22 100 -62 100 C-62 95 -62 95 -60.48828125 93.11328125 C-59.77027344 92.51902344 -59.05226563 91.92476563 -58.3125 91.3125 C-57.50425781 90.63574219 -56.69601562 89.95898438 -55.86328125 89.26171875 C-52.03104008 86.2346142 -48.17190883 83.24261168 -44.25512695 80.32543945 C-41.15179738 78.08706726 -41.15179738 78.08706726 -39 75 C-44.61 75 -50.22 75 -56 75 C-54.84048991 69.20244955 -52.92394948 67.87776231 -48.4375 64.625 C-47.16146503 63.6644789 -45.88671981 62.70224197 -44.61328125 61.73828125 C-43.68443115 61.0414624 -43.68443115 61.0414624 -42.73681641 60.33056641 C-39.34072233 57.72883564 -36.16250726 54.87768518 -33 52 C-33.91523437 51.95101562 -34.83046875 51.90203125 -35.7734375 51.8515625 C-36.96195313 51.77679688 -38.15046875 51.70203125 -39.375 51.625 C-40.55835938 51.55539063 -41.74171875 51.48578125 -42.9609375 51.4140625 C-46 51 -46 51 -48 49 C-47.30640833 38.46042227 -39.61120608 28.79973751 -33 21 C-32.18595703 19.96939453 -32.18595703 19.96939453 -31.35546875 18.91796875 C-24.3132747 10.29251796 -11.50969877 0 0 0 Z " fill="#FCB904" transform="translate(972,0)"/>
<path d="M0 0 C0.79481277 0.00424484 1.58962555 0.00848969 2.40852356 0.01286316 C4.94587146 0.02964945 7.48242363 0.06730051 10.01953125 0.10546875 C11.7402229 0.1205157 13.46092701 0.13420409 15.18164062 0.14648438 C19.39874387 0.17955268 23.61525267 0.2313338 27.83203125 0.29296875 C28.0000517 5.29566776 27.47893437 9.49849624 26.1875 14.328125 C25.93181999 15.29074501 25.93181999 15.29074501 25.67097473 16.27281189 C25.31114563 17.61928602 24.94704821 18.96462619 24.57885742 20.30883789 C24.02081797 22.3507605 23.47920204 24.39653527 22.93945312 26.44335938 C19.06551975 40.85109411 19.06551975 40.85109411 15.13378906 45.1496582 C11.80591363 46.8026536 8.63345207 46.66366149 5.00390625 46.5859375 C3.88039764 46.57957024 3.88039764 46.57957024 2.73419189 46.57307434 C0.3497675 46.55632621 -2.03380128 46.51868272 -4.41796875 46.48046875 C-6.03774818 46.46541684 -7.6575409 46.45172932 -9.27734375 46.43945312 C-13.24121341 46.40643555 -17.20444618 46.35468121 -21.16796875 46.29296875 C-20.56218043 40.70882299 -19.59396385 35.39997977 -18.20703125 29.9609375 C-18.01579681 29.20251053 -17.82456238 28.44408356 -17.62753296 27.66267395 C-17.22499678 26.07466495 -16.8198235 24.48732224 -16.41210938 22.90063477 C-15.79086625 20.47225026 -15.18622198 18.04009745 -14.58203125 15.60742188 C-14.18720431 14.05833689 -13.79140524 12.50949929 -13.39453125 10.9609375 C-13.1271666 9.87343452 -13.1271666 9.87343452 -12.85440063 8.76396179 C-12.16289526 6.12413244 -11.40436908 3.70369068 -10.03930664 1.33203125 C-6.88630176 -0.41867831 -3.50862345 -0.07037432 0 0 Z " fill="#FDB904" transform="translate(910.16796875,141.70703125)"/>
<path d="M0 0 C3.0390625 -0.29296875 3.0390625 -0.29296875 6.625 -0.1875 C7.81351563 -0.16042969 9.00203125 -0.13335937 10.2265625 -0.10546875 C11.14179687 -0.07066406 12.05703125 -0.03585938 13 0 C12.01 0.495 12.01 0.495 11 1 C11 1.66 11 2.32 11 3 C9.68 3.33 8.36 3.66 7 4 C7 4.99 7 5.98 7 7 C8.32 7.66 9.64 8.32 11 9 C6.38 9 1.76 9 -3 9 C-2 3 -2 3 0 0 Z " fill="#F3B816" transform="translate(889,124)"/>
<path d="M0 0 C0.66 0.33 1.32 0.66 2 1 C1.505 1.721875 1.01 2.44375 0.5 3.1875 C-1.39215686 6.20404412 -1.39215686 6.20404412 -1 11 C2.3 11.33 5.6 11.66 9 12 C8.34 13.32 7.68 14.64 7 16 C6.67 15.01 6.34 14.02 6 13 C0.39 13 -5.22 13 -11 13 C-9.8822412 7.41120602 -9.26539871 6.91972815 -4.9375 3.6875 C-4.01839844 2.99011719 -3.09929688 2.29273437 -2.15234375 1.57421875 C-1.44207031 1.05472656 -0.73179687 0.53523438 0 0 Z " fill="#F9B80A" transform="translate(927,62)"/>
<path d="M0 0 C0.33 0 0.66 0 1 0 C1 2.97 1 5.94 1 9 C0.34 9 -0.32 9 -1 9 C-1 10.65 -1 12.3 -1 14 C8.9 14 18.8 14 29 14 C29 14.33 29 14.66 29 15 C18.44 15 7.88 15 -3 15 C-2.29497337 9.35978694 -1.62776832 5.20885862 0 0 Z " fill="#FFC71F" transform="translate(892,173)"/>
<path d="M0 0 C0.66 0.33 1.32 0.66 2 1 C1.36684209 6.12524666 0.31839344 10.96530771 -1.0625 15.9375 C-1.24876953 16.62134766 -1.43503906 17.30519531 -1.62695312 18.00976562 C-2.08089057 19.67420293 -2.53990916 21.33725312 -3 23 C-3.33 23 -3.66 23 -4 23 C-4.33 20.36 -4.66 17.72 -5 15 C-4.34 15 -3.68 15 -3 15 C-2.14742393 11.77403651 -1.5239577 8.53416312 -0.9375 5.25 C-0.76089844 4.26515625 -0.58429687 3.2803125 -0.40234375 2.265625 C-0.26957031 1.51796875 -0.13679687 0.7703125 0 0 Z " fill="#F2BB1E" transform="translate(955,83)"/>
<path d="M0 0 C0.70640625 0.09990234 1.4128125 0.19980469 2.140625 0.30273438 C3.88621607 0.55041959 5.63072084 0.80573871 7.375 1.0625 C7.375 2.0525 7.375 3.0425 7.375 4.0625 C6.055 4.3925 4.735 4.7225 3.375 5.0625 C3.705 4.4025 4.035 3.7425 4.375 3.0625 C3.44816406 3.01351562 2.52132812 2.96453125 1.56640625 2.9140625 C0.36886719 2.83929688 -0.82867188 2.76453125 -2.0625 2.6875 C-3.25746094 2.61789063 -4.45242188 2.54828125 -5.68359375 2.4765625 C-6.65425781 2.33992188 -7.62492188 2.20328125 -8.625 2.0625 C-8.955 1.4025 -9.285 0.7425 -9.625 0.0625 C-6.48694878 -1.50652561 -3.35881412 -0.49886446 0 0 Z " fill="#F3B420" transform="translate(934.625,48.9375)"/>
<path d="M0 0 C0 0.99 0 1.98 0 3 C-3.33333333 6 -3.33333333 6 -6 6 C-6 7.65 -6 9.3 -6 11 C-7.98 11.99 -7.98 11.99 -10 13 C-9.58311525 8.13634454 -7.58780535 6.17061868 -4 3 C-2.68824014 1.97186389 -1.3630107 0.95915568 0 0 Z " fill="#F4B519" transform="translate(912,113)"/>
<path d="M0 0 C0.33 0 0.66 0 1 0 C1 2.97 1 5.94 1 9 C0.34 9 -0.32 9 -1 9 C-1 10.98 -1 12.96 -1 15 C-1.66 15 -2.32 15 -3 15 C-2.44854729 9.76119922 -1.57077907 5.02649303 0 0 Z " fill="#EFBF28" transform="translate(892,173)"/>
<path d="M0 0 C1.31534494 3.65857532 0.65468309 6.08026481 -0.4375 9.75 C-0.86869141 11.22726563 -0.86869141 11.22726563 -1.30859375 12.734375 C-1.53675781 13.48203125 -1.76492188 14.2296875 -2 15 C-2.33 15 -2.66 15 -3 15 C-3 12.03 -3 9.06 -3 6 C-2.34 6 -1.68 6 -1 6 C-1.0309375 4.7934375 -1.0309375 4.7934375 -1.0625 3.5625 C-1 1 -1 1 0 0 Z " fill="#F0BB24" transform="translate(936,149)"/>
<path d="M0 0 C0 3 0 3 -1 5 C1.97 5.33 4.94 5.66 8 6 C8 6.33 8 6.66 8 7 C4.37 7 0.74 7 -3 7 C-2 2 -2 2 0 0 Z " fill="#EBB62B" transform="translate(919,68)"/>
<path d="M0 0 C0.66 0 1.32 0 2 0 C1.60196439 2.88575819 1.20990931 3.82189513 -1.0625 5.75 C-1.701875 6.1625 -2.34125 6.575 -3 7 C-3.66 6.67 -4.32 6.34 -5 6 C-3.38405168 3.95880212 -1.7143618 1.95927063 0 0 Z " fill="#F7B324" transform="translate(946,13)"/>
<path d="M0 0 C-1 3 -1 3 -2.7421875 3.984375 C-3.44601562 4.23703125 -4.14984375 4.4896875 -4.875 4.75 C-5.57367187 5.01296875 -6.27234375 5.2759375 -6.9921875 5.546875 C-9 6 -9 6 -12 5 C-10.37750059 4.16180842 -8.75191503 3.3295884 -7.125 2.5 C-6.22007812 2.0359375 -5.31515625 1.571875 -4.3828125 1.09375 C-2 0 -2 0 0 0 Z " fill="#F3BD1B" transform="translate(965,3)"/>
<path d="M0 0 C0.66 0.33 1.32 0.66 2 1 C0.515 3.475 0.515 3.475 -1 6 C-2.32 5.34 -3.64 4.68 -5 4 C-3.35 2.68 -1.7 1.36 0 0 Z " fill="#F3BB1C" transform="translate(927,62)"/>
<path d="M0 0 C0.33 1.32 0.66 2.64 1 4 C-0.98 4.99 -0.98 4.99 -3 6 C-3.66 5.34 -4.32 4.68 -5 4 C-3.35 2.68 -1.7 1.36 0 0 Z " fill="#F6B615" transform="translate(934,57)"/>
<path d="" fill="#FFFFFF" transform="translate(0,0)"/>
<path d="" fill="#FFFFFF" transform="translate(0,0)"/>
<path d="" fill="#FFFFFF" transform="translate(0,0)"/>
<path d="" fill="#FFFFFF" transform="translate(0,0)"/>
<path d="" fill="#FFFFFF" transform="translate(0,0)"/>
<path d="" fill="#FFFFFF" transform="translate(0,0)"/>
<path d="" fill="#FFFFFF" transform="translate(0,0)"/>
<path d="" fill="#FFFFFF" transform="translate(0,0)"/>
<path d="" fill="#FFFFFF" transform="translate(0,0)"/>
<path d="" fill="#FFFFFF" transform="translate(0,0)"/>
<path d="" fill="#FFFFFF" transform="translate(0,0)"/>
<path d="" fill="#FFFFFF" transform="translate(0,0)"/>
<path d="" fill="#FFFFFF" transform="translate(0,0)"/>
<path d="" fill="#FFFFFF" transform="translate(0,0)"/>
<path d="" fill="#FFFFFF" transform="translate(0,0)"/>
<path d="" fill="#FFFFFF" transform="translate(0,0)"/>
<path d="" fill="#FFFFFF" transform="translate(0,0)"/>
<path d="" fill="#FFFFFF" transform="translate(0,0)"/>
<path d="" fill="#FFFFFF" transform="translate(0,0)"/>
<path d="" fill="#FFFFFF" transform="translate(0,0)"/>
<path d="" fill="#FFFFFF" transform="translate(0,0)"/>
<path d="" fill="#FFFFFF" transform="translate(0,0)"/>
<path d="" fill="#FFFFFF" transform="translate(0,0)"/>
<path d="" fill="#FFFFFF" transform="translate(0,0)"/>
<path d="" fill="#FFFFFF" transform="translate(0,0)"/>
<path d="" fill="#FFFFFF" transform="translate(0,0)"/>
<path d="" fill="#FFFFFF" transform="translate(0,0)"/>
<path d="" fill="#FFFFFF" transform="translate(0,0)"/>
<path d="" fill="#FFFFFF" transform="translate(0,0)"/>
<path d="" fill="#FFFFFF" transform="translate(0,0)"/>
<path d="" fill="#FFFFFF" transform="translate(0,0)"/>
<path d="" fill="#FFFFFF" transform="translate(0,0)"/>
<path d="" fill="#FFFFFF" transform="translate(0,0)"/>
<path d="" fill="#FFFFFF" transform="translate(0,0)"/>
<path d="" fill="#FFFFFF" transform="translate(0,0)"/>
<path d="" fill="#FFFFFF" transform="translate(0,0)"/>
<path d="" fill="#FFFFFF" transform="translate(0,0)"/>
<path d="" fill="#FFFFFF" transform="translate(0,0)"/>
<path d="" fill="#FFFFFF" transform="translate(0,0)"/>
<path d="" fill="#FFFFFF" transform="translate(0,0)"/>
<path d="" fill="#FFFFFF" transform="translate(0,0)"/>
</svg>
