<?xml version="1.0" encoding="UTF-8"?>
<svg version="1.1" xmlns="http://www.w3.org/2000/svg" width="546" height="457">
<path d="M0 0 C1.58322162 0.30323073 3.15048606 0.69020123 4.70703125 1.109375 C5.68736328 1.36976562 6.66769531 1.63015625 7.67773438 1.8984375 C8.71220703 2.17945313 9.74667969 2.46046875 10.8125 2.75 C12.81883637 3.28710889 14.82534742 3.82356571 16.83203125 4.359375 C17.84869873 4.63233398 18.86536621 4.90529297 19.9128418 5.18652344 C22.95834763 5.98902446 26.01165359 6.74936639 29.0703125 7.5 C34.78735997 8.91891753 40.42089315 10.55940445 46.0625 12.25 C59.292427 16.16057544 72.63325368 19.59298722 86 23 C99.02009271 26.32290143 111.97311937 29.78212057 124.84643555 33.640625 C128.98488558 34.87306647 133.09402175 36.06153534 137.3203125 36.953125 C142.36400357 38.02338941 147.28097493 39.48533045 152.23095703 40.92089844 C158.6084828 42.74682562 165.02436974 44.42951011 171.4375 46.125 C174.04059221 46.81425146 176.64338585 47.50460913 179.24609375 48.1953125 C180.37716553 48.49453613 181.5082373 48.79375977 182.67358398 49.10205078 C186.12646226 50.03413785 189.56351542 51.00942453 193 52 C191.60323592 60.84004636 189.39379819 69.38474653 187 78 C186.58965277 79.48953073 186.17950177 80.97911554 185.76953125 82.46875 C183.88858726 89.28362747 181.97800666 96.08756585 180 102.875 C178.49893848 108.09916688 177.16238249 113.34574656 175.875 118.625 C173.45973713 128.49620304 170.73562142 138.27652297 168 148.0625 C163.98227172 162.43889605 160.00959404 176.81731838 156.4375 191.3125 C155.46180603 195.25840048 154.38884621 199.1606303 153.25 203.0625 C150.81006637 211.4562485 148.68058979 219.92964965 146.54980469 228.40649414 C145.0129156 234.43579492 143.33231211 240.22947704 141 246 C135.04555461 244.71529603 129.13834655 243.30925695 123.25 241.75 C122.43781006 241.53601563 121.62562012 241.32203125 120.78881836 241.1015625 C113.80535133 239.24623544 106.86638114 237.24779066 99.92675781 235.23583984 C92.97812651 233.23859 85.98697547 231.46996369 78.96386719 229.75610352 C73.33361972 228.36984286 67.82360198 226.74196458 62.30078125 224.97265625 C57.52385596 223.56501791 52.68343782 222.46714267 47.8215332 221.39428711 C44.03645921 220.54537776 40.59094013 219.43750351 37 218 C34.39864254 217.36151033 31.80305704 216.7596531 29.1875 216.1875 C21.91108398 214.54397908 14.86350527 212.48439144 7.78125 210.1484375 C4.40616876 209.12336117 1.08550389 208.33556543 -2.35742188 207.59863281 C-8.11253729 206.29490563 -13.80099356 204.71497027 -19.5 203.1875 C-20.16042297 203.01114014 -20.82084595 202.83478027 -21.50128174 202.65307617 C-31.71436546 199.92413673 -41.88787916 197.08404859 -52 194 C-51.39924859 189.2987753 -50.52452646 184.82133551 -49.29296875 180.24609375 C-48.95330078 178.97830078 -48.61363281 177.71050781 -48.26367188 176.40429688 C-47.90495031 175.0820306 -47.54622634 173.75976498 -47.1875 172.4375 C-46.84014656 171.14267149 -46.49313908 169.84775013 -46.14648438 168.55273438 C-44.11362315 160.9833165 -42.00151264 153.43977701 -39.82543945 145.91040039 C-39.00107221 143.00378047 -38.26238601 140.08867176 -37.5546875 137.15234375 C-36.8115947 134.26893435 -35.96183884 131.4200776 -35.125 128.5625 C-33.57987502 123.21751211 -32.23565477 117.86159835 -31 112.4375 C-29.84748134 107.38635885 -28.57870516 102.43962046 -27 97.5 C-25.51743324 92.85272342 -24.3133278 88.19497525 -23.25 83.4375 C-21.47394354 75.53404874 -19.25899284 67.7776478 -17 60 C-14.5259368 51.47986342 -12.17675679 42.97656053 -10.22436523 34.32202148 C-9.26849988 30.08951619 -8.1599302 25.95711291 -6.85546875 21.8203125 C-5.36450662 16.9049031 -4.04824386 11.93851028 -2.71313477 6.97875977 C-1.10915487 1.10915487 -1.10915487 1.10915487 0 0 Z M52 90 C49.69228812 94.45722754 48.29799557 98.39384156 47.25 103.3125 C45.29581017 112.18794669 42.82800218 120.89701075 40.28613281 129.62036133 C39.99061523 130.6492749 39.69509766 131.67818848 39.390625 132.73828125 C39.12282227 133.65649658 38.85501953 134.57471191 38.57910156 135.52075195 C37.84836202 138.22486159 37.84836202 138.22486159 38 142 C47.73614526 145.19145547 57.54462039 148.0229562 67.4375 150.6875 C68.53819824 150.98470947 69.63889648 151.28191895 70.77294922 151.58813477 C76.82306133 153.20446149 82.87559414 154.69268729 89 156 C91.38294947 150.85391538 92.87439823 145.90969632 94.0625 140.375 C95.07721187 135.71303062 96.21569741 131.43309286 98 127 C98.76865373 124.20595277 99.4170624 121.38720978 100.0625 118.5625 C100.32256836 117.45551758 100.32256836 117.45551758 100.58789062 116.32617188 C101.53721633 112.23425075 102.36135507 108.15448403 103 104 C86.0692545 99.06653774 69.04942821 94.50180565 52 90 Z " fill="#040404" transform="translate(214,35)"/>
<path d="M0 0 C5.52866199 0.5814368 10.65311175 1.57145701 15.98828125 3.109375 C16.72570053 3.31670258 17.46311981 3.52403015 18.22288513 3.73764038 C20.58754587 4.40338861 22.94997084 5.07673138 25.3125 5.75 C28.54229179 6.66126442 31.77315735 7.56869821 35.00390625 8.4765625 C35.78881439 8.6977475 36.57372253 8.9189325 37.38241577 9.14682007 C45.89282656 11.54181503 54.43693575 13.80137539 63 16 C62.32205707 21.29773963 61.29688584 26.43048411 60.0625 31.625 C59.80823242 32.73101562 59.80823242 32.73101562 59.54882812 33.859375 C58.63369834 37.74258733 57.48302457 41.29243858 56 45 C55.36045039 47.5805408 54.75835141 50.15465205 54.1875 52.75 C52.17656309 61.6205746 49.65565722 70.30381098 47 79 C30.3705165 77.13009083 14.2012474 71.59471215 -1.81152344 66.92529297 C-3.88425439 66.32378835 -5.96032094 65.73362122 -8.04003906 65.15673828 C-9.40080566 64.77171143 -9.40080566 64.77171143 -10.7890625 64.37890625 C-11.5826416 64.15920166 -12.3762207 63.93949707 -13.19384766 63.71313477 C-15 63 -15 63 -16 61 C-15.53716312 58.47218401 -15.00139923 56.02559718 -14.3828125 53.53515625 C-14.20009796 52.78089859 -14.01738342 52.02664093 -13.82913208 51.24952698 C-11.70325403 42.59303581 -9.29795073 34.0145307 -6.875 25.4375 C-6.20809309 23.06646405 -5.54222532 20.6951422 -4.87747192 18.32350159 C-4.46930066 16.86829466 -4.05980549 15.41345808 -3.64865112 13.95909119 C-2.34525622 9.3257373 -1.14948784 4.67399641 0 0 Z M17 30 C16.46748234 31.91345327 15.94940517 33.8309295 15.4375 35.75 C15.14746094 36.81734375 14.85742188 37.8846875 14.55859375 38.984375 C14.02901506 41.84335927 14.01629138 43.31597383 15 46 C16.74635165 46.53293835 18.49727652 47.05090663 20.25 47.5625 C21.22453125 47.85253906 22.1990625 48.14257812 23.203125 48.44140625 C26.21271679 49.24987668 26.21271679 49.24987668 30 48 C30.99 43.38 31.98 38.76 33 34 C27.60748173 32.09187815 22.68475366 30.60476103 17 30 Z " fill="#0B0B0B" transform="translate(145,300)"/>
<path d="M0 0 C7.92 -0.103125 15.84 -0.20625 24 -0.3125 C26.4853125 -0.35802002 28.970625 -0.40354004 31.53125 -0.45043945 C33.52081964 -0.4650547 35.51040433 -0.47779291 37.5 -0.48828125 C38.51707031 -0.51386108 39.53414062 -0.53944092 40.58203125 -0.5657959 C47.37529307 -0.56992604 51.72004741 0.64948812 57 5 C60.67135633 8.67135633 61.956204 13.27588853 62.0390625 18.4296875 C61.65828314 24.39523075 60.38180397 29.61819603 56 34 C56.99 34.495 56.99 34.495 58 35 C58 35.66 58 36.32 58 37 C58.66 37 59.32 37 60 37 C63.75236644 42.62854966 63.90379257 48.38667164 63 55 C61.02562461 60.56664172 57.3786734 63.99208936 52.40014648 66.97885132 C47.82863508 68.92381296 43.17368233 68.60877049 38.28125 68.48828125 C37.30639648 68.48324585 36.33154297 68.47821045 35.32714844 68.47302246 C31.71779581 68.44704478 28.10886549 68.37723867 24.5 68.3125 C16.415 68.209375 8.33 68.10625 0 68 C0 45.56 0 23.12 0 0 Z M22 17 C22 19.97 22 22.94 22 26 C24.27057377 26.05398987 26.54151288 26.09278742 28.8125 26.125 C30.70935547 26.15980469 30.70935547 26.15980469 32.64453125 26.1953125 C36.1338024 26.27581918 36.1338024 26.27581918 39 24 C39.33343551 21.45792029 39.33343551 21.45792029 39 19 C36.94077598 16.94077598 32.78291876 17.58572421 29.9375 17.4375 C29.17888672 17.39431641 28.42027344 17.35113281 27.63867188 17.30664062 C25.75934562 17.20026367 23.87969756 17.09960066 22 17 Z M22 42 C22 44.64 22 47.28 22 50 C27.61 50 33.22 50 39 50 C39.66 48.68 40.32 47.36 41 46 C40.34 44.68 39.68 43.36 39 42 C33.39 42 27.78 42 22 42 Z " fill="#0B0B0B" transform="translate(215,306)"/>
<path d="M0 0 C0.83469315 0.00718552 1.66938629 0.01437103 2.52937317 0.02177429 C3.86387764 0.04350456 3.86387764 0.04350456 5.2253418 0.06567383 C6.61791451 0.08686028 6.61791451 0.08686028 8.03862 0.10847473 C9.99959921 0.14152118 11.96052527 0.1778652 13.92138672 0.21728516 C16.903596 0.2723182 19.88535396 0.30102007 22.86791992 0.3293457 C24.77875827 0.36481972 26.689568 0.40187791 28.6003418 0.44067383 C29.48393875 0.44503952 30.36753571 0.44940521 31.27790833 0.4539032 C37.38272662 0.61984903 41.32517163 2.01467058 46.61206055 5.08520508 C46.61206055 5.74520508 46.61206055 6.40520508 46.61206055 7.08520508 C47.60206055 7.41520508 48.59206055 7.74520508 49.61206055 8.08520508 C50.74487305 9.82739258 50.74487305 9.82739258 51.73706055 11.96020508 C52.06963867 12.65887695 52.4022168 13.35754883 52.74487305 14.07739258 C55.41250072 20.25379179 55.72840911 27.21558233 53.8581543 33.69848633 C51.83442476 38.42052191 49.37835977 43.70205547 44.61206055 46.08520508 C45.24424722 49.06426514 46.21710069 51.45739318 47.6784668 54.12426758 C48.08129883 54.8693457 48.48413086 55.61442383 48.89916992 56.38208008 C49.32004883 57.15036133 49.74092773 57.91864258 50.17456055 58.71020508 C51.01297486 60.24199694 51.84779716 61.77576209 52.6784668 63.31176758 C53.04915283 63.98804199 53.41983887 64.66431641 53.80175781 65.36108398 C54.61206055 67.08520508 54.61206055 67.08520508 54.61206055 69.08520508 C50.71723839 69.31802581 46.82420201 69.45977146 42.92456055 69.58520508 C41.82176758 69.65223633 40.71897461 69.71926758 39.58276367 69.78833008 C31.58470844 69.98163655 31.58470844 69.98163655 28.80810547 67.42260742 C27.50635959 65.35800141 26.52828869 63.34427925 25.61206055 61.08520508 C25.16217773 60.2730957 24.71229492 59.46098633 24.2487793 58.62426758 C21.61206055 53.3074273 21.61206055 53.3074273 21.61206055 51.08520508 C18.64206055 51.08520508 15.67206055 51.08520508 12.61206055 51.08520508 C12.61206055 57.02520508 12.61206055 62.96520508 12.61206055 69.08520508 C5.35206055 69.08520508 -1.90793945 69.08520508 -9.38793945 69.08520508 C-9.38793945 46.64520508 -9.38793945 24.20520508 -9.38793945 1.08520508 C-5.8869486 0.38500691 -3.42913805 -0.03727556 0 0 Z M12.61206055 19.08520508 C12.61206055 23.04520508 12.61206055 27.00520508 12.61206055 31.08520508 C15.21650403 31.13915212 17.81983052 31.17884977 20.42456055 31.21020508 C21.53154297 31.2353418 21.53154297 31.2353418 22.66088867 31.26098633 C26.52452481 31.29595136 28.32109723 31.27918062 31.61206055 29.08520508 C32.19548407 25.62751317 32.19548407 25.62751317 31.61206055 22.08520508 C29.12925909 19.33212397 27.67435907 19.0901757 23.94018555 18.79223633 C22.58050019 18.81203757 21.22096714 18.84761306 19.86206055 18.89770508 C19.16467773 18.91124023 18.46729492 18.92477539 17.7487793 18.9387207 C16.03620514 18.97391058 14.32403114 19.02771353 12.61206055 19.08520508 Z " fill="#0B0B0B" transform="translate(72.387939453125,304.914794921875)"/>
<path d="M0 0 C10.05647827 8.43962399 14.37507745 17.12585192 15.5625 30.1875 C14.59041388 41.26928172 10.56015713 49.89313837 2.5 57.5625 C-1.80000197 61.13340722 -6.48467992 63.0104804 -11.75 64.75 C-12.74 65.08 -13.73 65.41 -14.75 65.75 C-26.14001763 66.65149302 -34.71520572 64.55566462 -44.1328125 58.15234375 C-44.66648437 57.68957031 -45.20015625 57.22679687 -45.75 56.75 C-45.75 56.09 -45.75 55.43 -45.75 54.75 C-46.41 54.75 -47.07 54.75 -47.75 54.75 C-55.60253148 44.50837286 -57.66452791 35.50984179 -56.75 22.75 C-55.54058983 16.01185764 -52.16659326 9.9539525 -47.75 4.75 C-47.09 4.75 -46.43 4.75 -45.75 4.75 C-45.42 3.76 -45.09 2.77 -44.75 1.75 C-31.75094333 -8.20834166 -13.53122047 -10.05240919 0 0 Z M-31.5 19.8125 C-34.49962091 23.72867174 -35.03444685 26.87257318 -34.75 31.75 C-33.22742675 36.90983157 -31.44740444 40.0359441 -26.75 42.75 C-21.02748322 44.25098801 -17.58171371 43.9534622 -12.44921875 40.96875 C-9.84002998 39.09733185 -8.81513711 37.81226919 -7.75 34.75 C-7.21140064 30.0872684 -7.13029598 26.13695661 -9.0625 21.8125 C-11.919074 18.07857279 -11.919074 18.07857279 -16.0546875 16.16796875 C-22.60777802 15.58038161 -26.12520844 15.78140633 -31.5 19.8125 Z " fill="#101010" transform="translate(397.75,310.25)"/>
<path d="M0 0 C23.73180784 -1.90892133 23.73180784 -1.90892133 28.93359375 1.12939453 C31.84017413 4.22869383 32.9290134 7.97976388 34 12 C34.66 12.99 35.32 13.98 36 15 C38.84331266 12.49720383 40.37336847 9.71102186 42.125 6.375 C44.91666667 1.08333333 44.91666667 1.08333333 46 0 C47.92667507 -0.08748207 49.85651861 -0.10697334 51.78515625 -0.09765625 C52.95498047 -0.09443359 54.12480469 -0.09121094 55.33007812 -0.08789062 C56.56177734 -0.07951172 57.79347656 -0.07113281 59.0625 -0.0625 C60.91584961 -0.05573242 60.91584961 -0.05573242 62.80664062 -0.04882812 C65.87114117 -0.03699608 68.93554721 -0.02051173 72 0 C70.61758202 3.56053862 69.09537623 6.61402907 67 9.8125 C66.08927734 11.23369141 66.08927734 11.23369141 65.16015625 12.68359375 C63.54096467 15.16947738 61.90086995 17.63572775 60.24609375 20.09765625 C59.30949601 21.52317489 58.37329614 22.94895501 57.4375 24.375 C56.97150391 25.05280518 56.50550781 25.73061035 56.02539062 26.42895508 C54.83128801 28.26728061 53.78514633 29.95288729 53 32 C53.53076667 34.82791324 53.53076667 34.82791324 55 37 C55.35858516 38.32676508 55.7018576 39.65835921 56 41 C56.66 41 57.32 41 58 41 C58.27972656 41.53367187 58.55945313 42.06734375 58.84765625 42.6171875 C61.68651977 47.89327468 64.84416112 52.78422308 68.3515625 57.640625 C73 64.29383886 73 64.29383886 73 68 C68.75051671 68.17415915 64.50194845 68.28081127 60.25 68.375 C59.0434375 68.42527344 57.836875 68.47554688 56.59375 68.52734375 C47.91989274 68.67190804 47.91989274 68.67190804 45.27929688 66.74316406 C43.45932715 64.14802205 43 62.14508263 43 59 C42.34 59 41.68 59 41 59 C37 52.25 37 52.25 37 50 C36.34 50 35.68 50 35 50 C34.89558594 50.51046875 34.79117188 51.0209375 34.68359375 51.546875 C32.93424892 57.82452386 30.77315846 64.39748465 25 68 C16.53019538 69.83860127 7.55665301 68.84719337 -1 68 C0.19289152 64.00266641 1.51816561 60.90939686 4 57.5625 C7.19689986 53.14068272 10.28292486 48.66221749 13.3125 44.125 C13.74498047 43.48248291 14.17746094 42.83996582 14.62304688 42.17797852 C16.61217303 39.19859645 18.51485407 36.26567999 20 33 C19.566875 32.38511719 19.13375 31.77023437 18.6875 31.13671875 C18.130625 30.32847656 17.57375 29.52023437 17 28.6875 C16.443125 27.88699219 15.88625 27.08648437 15.3125 26.26171875 C14 24 14 24 14 21 C13.34 21 12.68 21 12 21 C10.44921875 18.69140625 10.44921875 18.69140625 8.6875 15.5625 C8.11386719 14.55316406 7.54023438 13.54382813 6.94921875 12.50390625 C6.29819134 11.33665485 5.64860939 10.16859676 5 9 C4.33411865 7.80286377 4.33411865 7.80286377 3.65478516 6.58154297 C2.43545087 4.38828852 1.21726387 2.19440403 0 0 Z " fill="#0E0E0E" transform="translate(410,306)"/>
<path d="M0 0 C1.30227539 0.0611499 1.30227539 0.0611499 2.63085938 0.12353516 C4.04044922 0.18927734 4.04044922 0.18927734 5.47851562 0.25634766 C6.96158203 0.33369141 6.96158203 0.33369141 8.47460938 0.41259766 C9.46332031 0.45642578 10.45203125 0.50025391 11.47070312 0.54541016 C18.846667 0.90965529 18.846667 0.90965529 19.97460938 2.03759766 C20.06748198 3.44984811 20.09207709 4.866687 20.08813477 6.28198242 C20.08805923 7.18284073 20.0879837 8.08369904 20.08790588 9.01185608 C20.0827446 9.99101486 20.07758331 10.97017365 20.07226562 11.97900391 C20.07085068 12.97641098 20.06943573 13.97381805 20.06797791 15.00144958 C20.06236052 18.20102889 20.04980508 21.40053934 20.03710938 24.60009766 C20.03209661 26.76350811 20.02753332 28.92691965 20.0234375 31.09033203 C20.01238544 36.40611091 19.99563041 41.72184937 19.97460938 47.03759766 C20.81757568 47.03236084 21.66054199 47.02712402 22.52905273 47.02172852 C25.64688873 47.0047194 28.76470114 46.9921636 31.88256836 46.98266602 C33.23381323 46.97762709 34.58505263 46.97079588 35.9362793 46.9621582 C37.87481372 46.95007346 39.81338738 46.94489937 41.75195312 46.93994141 C43.50366821 46.93208618 43.50366821 46.93208618 45.29077148 46.92407227 C47.97460938 47.03759766 47.97460938 47.03759766 48.97460938 48.03759766 C49.0614654 49.5993251 49.08163157 51.1648911 49.07226562 52.72900391 C49.06904297 53.67324219 49.06582031 54.61748047 49.0625 55.59033203 C49.04993164 57.08016602 49.04993164 57.08016602 49.03710938 58.60009766 C49.03259766 59.5971875 49.02808594 60.59427734 49.0234375 61.62158203 C49.01160944 64.09364614 48.99512787 66.56559284 48.97460938 69.03759766 C42.7650177 69.97854089 36.83867865 70.1005319 30.56835938 69.91650391 C29.60305298 69.89289291 28.63774658 69.86928192 27.64318848 69.84495544 C24.58682279 69.76892406 21.53075021 69.68464254 18.47460938 69.60009766 C16.39128996 69.54681624 14.30795662 69.49407636 12.22460938 69.44189453 C7.14109356 69.31339174 2.05782388 69.17749391 -3.02539062 69.03759766 C-3.04851651 60.18877376 -3.06630696 51.33996019 -3.0772028 42.49111271 C-3.08243109 38.38265481 -3.08952775 34.27421752 -3.10083008 30.16577148 C-3.11166088 26.20412937 -3.11766787 22.24250713 -3.12026787 18.28085136 C-3.12212177 16.76611455 -3.12574172 15.25137887 -3.13112068 13.73665047 C-3.13833369 11.62217953 -3.13938146 9.50779172 -3.13891602 7.39331055 C-3.14113663 6.18751846 -3.14335724 4.98172638 -3.14564514 3.73939514 C-2.98167165 0.05534926 -2.98167165 0.05534926 0 0 Z " fill="#030303" transform="translate(289.025390625,304.96240234375)"/>
<path d="M0 0 C0.33 0 0.66 0 1 0 C1 22.11 1 44.22 1 67 C17.17 67 33.34 67 50 67 C50 60.73 50 54.46 50 48 C40.43 48.33 30.86 48.66 21 49 C19.77374953 46.54749907 19.96574645 45.15689565 20.12109375 42.4296875 C20.16943359 41.53378906 20.21777344 40.63789063 20.26757812 39.71484375 C20.32365234 38.77769531 20.37972656 37.84054687 20.4375 36.875 C20.48970703 35.93011719 20.54191406 34.98523438 20.59570312 34.01171875 C20.72556761 31.6741581 20.8605387 29.33700455 21 27 C21.66 26.67 22.32 26.34 23 26 C23 32.6 23 39.2 23 46 C26.01447266 45.98259766 26.01447266 45.98259766 29.08984375 45.96484375 C31.02921424 45.9578926 32.96858503 45.95097604 34.90795898 45.94506836 C36.25920386 45.94002943 37.61044326 45.93319823 38.96166992 45.92456055 C40.90020434 45.91247581 42.838778 45.90730172 44.77734375 45.90234375 C46.52905884 45.89448853 46.52905884 45.89448853 48.31616211 45.88647461 C51 46 51 46 52 47 C52.08685603 48.56172745 52.10702219 50.12729344 52.09765625 51.69140625 C52.09443359 52.63564453 52.09121094 53.57988281 52.08789062 54.55273438 C52.07532227 56.04256836 52.07532227 56.04256836 52.0625 57.5625 C52.05798828 58.55958984 52.05347656 59.55667969 52.04882812 60.58398438 C52.03700007 63.05604849 52.02051849 65.52799518 52 68 C45.79031325 68.94095764 39.86435168 69.06312323 33.59375 68.87890625 C32.30839355 68.84790833 32.30839355 68.84790833 30.99707031 68.81628418 C27.83121285 68.73820312 24.6656178 68.64975859 21.5 68.5625 C14.405 68.376875 7.31 68.19125 0 68 C0 45.56 0 23.12 0 0 Z " fill="#979797" transform="translate(286,306)"/>
<path d="M0 0 C0.33 0 0.66 0 1 0 C1 6.6 1 13.2 1 20 C10.24 20 19.48 20 29 20 C29 26.93 29 33.86 29 41 C28.67 41 28.34 41 28 41 C28 34.73 28 28.46 28 22 C18.43 22.33 8.86 22.66 -1 23 C-2.21842903 20.56314193 -2.04865735 19.17562655 -1.9140625 16.46484375 C-1.87023437 15.57345703 -1.82640625 14.68207031 -1.78125 13.76367188 C-1.7296875 12.83103516 -1.678125 11.89839844 -1.625 10.9375 C-1.58117187 10.00099609 -1.53734375 9.06449219 -1.4921875 8.09960938 C-1.12875406 1.12875406 -1.12875406 1.12875406 0 0 Z " fill="#636363" transform="translate(308,332)"/>
<path d="M0 0 C2.5543054 5.10861081 2.19710241 8.51187557 1 14 C-0.12188918 16.57845958 -1.42835498 18.64253247 -3 21 C-3.33 21.66 -3.66 22.32 -4 23 C-4.66 23 -5.32 23 -6 23 C-5.67 21.35 -5.34 19.7 -5 18 C-4.34 18 -3.68 18 -3 18 C-3 17.34 -3 16.68 -3 16 C-2.34 16 -1.68 16 -1 16 C-0.67 10.72 -0.34 5.44 0 0 Z " fill="#6C6C6C" transform="translate(275,318)"/>
<path d="M0 0 C8.58 0 17.16 0 26 0 C25.34 1.65 24.68 3.3 24 5 C23.67 3.68 23.34 2.36 23 1 C15.41 1 7.82 1 0 1 C0 0.67 0 0.34 0 0 Z " fill="#424242" transform="translate(456,306)"/>
<path d="M0 0 C0.33 0 0.66 0 1 0 C1.67081836 6.43985624 -0.24569762 9.83783423 -4 15 C-4.33 13.68 -4.66 12.36 -5 11 C-4.01 10.67 -3.02 10.34 -2 10 C-1.855625 9.0925 -1.71125 8.185 -1.5625 7.25 C-1.13590527 4.78523044 -0.64925779 2.41152893 0 0 Z " fill="#6D6D6D" transform="translate(277,354)"/>
<path d="M0 0 C3.96 0.33 7.92 0.66 12 1 C12.66 3.31 13.32 5.62 14 8 C13.01 8.33 12.02 8.66 11 9 C11 7.35 11 5.7 11 4 C9.741875 3.71125 8.48375 3.4225 7.1875 3.125 C4.1460601 2.42696461 2.69330122 1.79553415 0 0 Z " fill="#6D6D6D" transform="translate(166,330)"/>
<path d="M0 0 C2.64 0.33 5.28 0.66 8 1 C8 1.33 8 1.66 8 2 C7.43410156 2.10957031 6.86820313 2.21914063 6.28515625 2.33203125 C5.18494141 2.56986328 5.18494141 2.56986328 4.0625 2.8125 C3.33160156 2.96332031 2.60070312 3.11414063 1.84765625 3.26953125 C0.93306641 3.63111328 0.93306641 3.63111328 0 4 C-0.33 4.99 -0.66 5.98 -1 7 C-0.67 4.69 -0.34 2.38 0 0 Z " fill="#747474" transform="translate(145,300)"/>
<path d="M0 0 C5.65394631 -0.34615998 9.03006806 0.56574762 14 3 C10.36804504 4.21065165 8.93468371 3.62784815 5.3125 2.5625 C4.31863281 2.27503906 3.32476562 1.98757812 2.30078125 1.69140625 C1.54152344 1.46324219 0.78226562 1.23507813 0 1 C0 0.67 0 0.34 0 0 Z " fill="#6D6D6D" transform="translate(267,125)"/>
<path d="M0 0 C0.33 0 0.66 0 1 0 C1.34615998 5.65394631 0.43425238 9.03006806 -2 14 C-3.21065165 10.36804504 -2.62784815 8.93468371 -1.5625 5.3125 C-1.27503906 4.31863281 -0.98757812 3.32476562 -0.69140625 2.30078125 C-0.46324219 1.54152344 -0.23507813 0.78226562 0 0 Z " fill="#7C7C7C" transform="translate(137,330)"/>
<path d="M0 0 C1.41687119 4.25061356 0.19320039 6.71851625 -1 11 C-2.125 9.375 -2.125 9.375 -3 7 C-1.63157895 1.63157895 -1.63157895 1.63157895 0 0 Z " fill="#4E4E4E" transform="translate(260,140)"/>
<path d="M0 0 C6.625 -0.125 6.625 -0.125 10 1 C10 1.66 10 2.32 10 3 C3.375 2.25 3.375 2.25 0 0 Z " fill="#5E5E5E" transform="translate(239,249)"/>
<path d="" fill="#FFFFFF" transform="translate(0,0)"/>
<path d="" fill="#FFFFFF" transform="translate(0,0)"/>
<path d="" fill="#FFFFFF" transform="translate(0,0)"/>
<path d="" fill="#FFFFFF" transform="translate(0,0)"/>
<path d="" fill="#FFFFFF" transform="translate(0,0)"/>
<path d="" fill="#FFFFFF" transform="translate(0,0)"/>
<path d="" fill="#FFFFFF" transform="translate(0,0)"/>
<path d="" fill="#FFFFFF" transform="translate(0,0)"/>
<path d="" fill="#FFFFFF" transform="translate(0,0)"/>
<path d="" fill="#FFFFFF" transform="translate(0,0)"/>
<path d="" fill="#FFFFFF" transform="translate(0,0)"/>
<path d="" fill="#FFFFFF" transform="translate(0,0)"/>
<path d="" fill="#FFFFFF" transform="translate(0,0)"/>
<path d="" fill="#FFFFFF" transform="translate(0,0)"/>
<path d="" fill="#FFFFFF" transform="translate(0,0)"/>
<path d="" fill="#FFFFFF" transform="translate(0,0)"/>
<path d="" fill="#FFFFFF" transform="translate(0,0)"/>
<path d="" fill="#FFFFFF" transform="translate(0,0)"/>
<path d="" fill="#FFFFFF" transform="translate(0,0)"/>
<path d="" fill="#FFFFFF" transform="translate(0,0)"/>
<path d="" fill="#FFFFFF" transform="translate(0,0)"/>
<path d="" fill="#FFFFFF" transform="translate(0,0)"/>
<path d="" fill="#FFFFFF" transform="translate(0,0)"/>
<path d="" fill="#FFFFFF" transform="translate(0,0)"/>
<path d="" fill="#FFFFFF" transform="translate(0,0)"/>
<path d="" fill="#FFFFFF" transform="translate(0,0)"/>
<path d="" fill="#FFFFFF" transform="translate(0,0)"/>
<path d="" fill="#FFFFFF" transform="translate(0,0)"/>
<path d="" fill="#FFFFFF" transform="translate(0,0)"/>
<path d="" fill="#FFFFFF" transform="translate(0,0)"/>
<path d="" fill="#FFFFFF" transform="translate(0,0)"/>
<path d="" fill="#FFFFFF" transform="translate(0,0)"/>
<path d="" fill="#FFFFFF" transform="translate(0,0)"/>
<path d="" fill="#FFFFFF" transform="translate(0,0)"/>
<path d="" fill="#FFFFFF" transform="translate(0,0)"/>
<path d="" fill="#FFFFFF" transform="translate(0,0)"/>
<path d="" fill="#FFFFFF" transform="translate(0,0)"/>
<path d="" fill="#FFFFFF" transform="translate(0,0)"/>
<path d="" fill="#FFFFFF" transform="translate(0,0)"/>
<path d="" fill="#FFFFFF" transform="translate(0,0)"/>
<path d="" fill="#FFFFFF" transform="translate(0,0)"/>
<path d="" fill="#FFFFFF" transform="translate(0,0)"/>
<path d="" fill="#FFFFFF" transform="translate(0,0)"/>
<path d="" fill="#FFFFFF" transform="translate(0,0)"/>
<path d="" fill="#FFFFFF" transform="translate(0,0)"/>
<path d="" fill="#FFFFFF" transform="translate(0,0)"/>
<path d="" fill="#FFFFFF" transform="translate(0,0)"/>
<path d="" fill="#FFFFFF" transform="translate(0,0)"/>
<path d="" fill="#FFFFFF" transform="translate(0,0)"/>
<path d="" fill="#FFFFFF" transform="translate(0,0)"/>
<path d="" fill="#FFFFFF" transform="translate(0,0)"/>
<path d="" fill="#FFFFFF" transform="translate(0,0)"/>
<path d="" fill="#FFFFFF" transform="translate(0,0)"/>
<path d="" fill="#FFFFFF" transform="translate(0,0)"/>
<path d="" fill="#FFFFFF" transform="translate(0,0)"/>
<path d="" fill="#FFFFFF" transform="translate(0,0)"/>
<path d="" fill="#FFFFFF" transform="translate(0,0)"/>
</svg>
